<svg version="1.1" id="Capa_1" xmlns="http://www.w3.org/2000/svg" xmlns:xlink="http://www.w3.org/1999/xlink" x="0px" y="0px"
	 viewBox="0 0 512.001 512.001" style="enable-background:new 0 0 512.001 512.001;" xml:space="preserve">
<path style="fill:#2C323D;" d="M504.357,256c0,82.738-40.406,156.009-102.587,201.118c-7.278,5.292-14.851,10.188-22.697,14.668
	c-1.946,1.146-3.913,2.25-5.9,3.315c-5.413,2.919-10.989,5.596-16.645,8.089c-30.695,13.634-64.715,21.207-100.488,21.207
	c-41.795,0-81.177-10.33-115.744-28.566c-10.492-5.535-20.538-11.789-30.066-18.723C48.07,411.958,7.644,338.698,7.644,256
	c0-137.174,111.223-248.397,248.397-248.397S504.357,118.826,504.357,256z"/>
<path style="fill:#798989;" d="M401.771,457.118c-7.278,5.292-14.851,10.188-22.697,14.668c-1.946,1.146-3.913,2.25-5.9,3.315
	c-5.413,2.919-10.989,5.596-16.645,8.089c-30.695,13.634-64.715,21.207-100.488,21.207c-41.795,0-81.177-10.33-115.744-28.566
	c-10.492-5.535-20.538-11.789-30.066-18.723l45.961-59.251h199.608L401.771,457.118z"/>
<path style="fill:#4F5F5F;" d="M356.529,483.191c-30.695,13.634-64.715,21.207-100.488,21.207
	c-41.795,0-81.177-10.33-115.744-28.566l44.015-77.974h145.263l43.599,77.244C367.761,478.021,362.186,480.697,356.529,483.191z"/>
<path style="fill:#E4061A;" d="M355.799,74.003H156.196c-22.686,0-41.076,18.391-41.076,41.076v241.706
	c0,22.686,18.391,41.076,41.076,41.076h199.604c22.686,0,41.076-18.391,41.076-41.076V115.079
	C396.876,92.394,378.485,74.003,355.799,74.003z"/>
<path style="fill:#A0D9F2;" d="M366.707,286.13L366.707,286.13c-71.315,27.121-150.104,27.121-221.419,0l0,0V130.678h221.419V286.13
	z"/>
<rect x="145.284" y="130.676" style="fill:#131928;" width="221.423" height="50.198"/>
<g>
	<circle style="fill:#FFFFFF;" cx="166.339" cy="346.047" r="21.051"/>
	<circle style="fill:#FFFFFF;" cx="345.652" cy="346.047" r="21.051"/>
</g>
<path style="fill:#131928;" d="M291.627,397.864v-23.932c0-8.247-6.685-14.933-14.933-14.933h-41.387
	c-8.247,0-14.933,6.685-14.933,14.933v23.932"/>
<path d="M437.016,74.986C388.683,26.631,324.41,0,256.041,0c-68.374,0-132.66,26.631-181.015,74.985S0.041,187.626,0.041,256
	c0,41.091,9.974,81.947,28.844,118.149c18.259,35.027,44.842,65.842,76.872,89.107c9.781,7.117,20.209,13.611,30.991,19.3
	c36.514,19.262,77.764,29.445,119.293,29.445c36.069,0,70.918-7.355,103.555-21.852c6.251-2.756,11.873-5.489,17.168-8.344
	c2.065-1.106,4.139-2.272,6.081-3.415c8.042-4.592,15.913-9.68,23.39-15.116c32.041-23.245,58.629-54.052,76.889-89.089
	c18.864-36.199,28.836-77.067,28.836-118.183C511.96,187.622,485.344,123.336,437.016,74.986z M159.912,405.464H171.5l-33.597,60.39
	c-5.738-3.237-11.347-6.708-16.778-10.389L159.912,405.464z M353.443,476.243c-30.701,13.637-63.472,20.552-97.401,20.552
	c-36.235,0-72.23-8.251-104.655-23.897l13.064-23.482h42.39c4.199,0,7.603-3.404,7.603-7.603l0,0c0-4.199-3.404-7.603-7.603-7.603
	h-33.931l15.992-28.744h134.189l15.989,28.744h-96.758c-4.199,0-7.603,3.404-7.603,7.603l0,0c0,4.199,3.404,7.603,7.603,7.603
	h105.215l13.088,23.53C358.326,474.045,355.943,475.141,353.443,476.243z M284.024,390.259h-56.047v-16.327
	c0-4.042,3.287-7.33,7.329-7.33h41.387c4.042,0,7.329,3.288,7.329,7.33v16.327H284.024z M375.218,465.234
	c-0.371,0.218-0.75,0.43-1.123,0.646l-33.606-60.416h11.59l38.788,50.003C385.796,458.903,380.571,462.177,375.218,465.234z
	 M469.639,367.156c-16.043,30.786-38.927,58.096-66.447,79.391l-33.454-43.126c20.069-6.009,34.741-24.637,34.741-46.635V115.079
	c0-26.884-21.795-48.679-48.679-48.679h-38.467c-4.199,0-7.603,3.404-7.603,7.603l0,0c0,4.199,3.404,7.603,7.603,7.603h38.467
	c18.487,0,33.473,14.987,33.473,33.473v241.706c0,18.487-14.987,33.473-33.473,33.473h-56.57v-16.327
	c0-12.446-10.089-22.536-22.536-22.536h-41.387c-12.446,0-22.535,10.089-22.535,22.535v16.328h-56.577
	c-18.487,0-33.473-14.987-33.473-33.473V115.079c0-18.487,14.987-33.473,33.473-33.473h125.656c4.199,0,7.603-3.404,7.603-7.603l0,0
	c0-4.199-3.404-7.603-7.603-7.603H156.196c-26.885,0-48.679,21.795-48.679,48.679v241.705c0,21.997,14.67,40.625,34.74,46.635
	l-33.444,43.114c-27.514-21.312-50.397-48.631-66.442-79.413C24.625,333.08,15.247,294.654,15.247,256
	c0-64.312,25.049-124.779,70.531-170.262c45.483-45.484,105.951-70.532,170.263-70.532c64.307,0,124.759,25.048,170.221,70.53
	C471.72,131.214,496.754,191.682,496.754,256C496.754,294.68,487.378,333.117,469.639,367.156z"/>
<path d="M139.912,125.303c-1.425,1.425-2.226,3.359-2.226,5.376l0.001,155.452c0,3.157,1.95,5.984,4.9,7.106
	c36.571,13.908,74.984,20.859,113.412,20.859c38.416,0,76.849-6.954,113.412-20.859c2.95-1.122,4.9-3.949,4.9-7.106V130.678
	c0-4.199-3.403-7.603-7.603-7.603H145.287C143.271,123.075,141.338,123.876,139.912,125.303z M152.89,280.84v-92.36h206.214v92.36
	C292.404,304.909,219.59,304.908,152.89,280.84z M359.104,138.281v34.993H152.89v-34.993H359.104z"/>
<path d="M166.339,317.391c-15.8,0-28.654,12.854-28.654,28.653c0,15.8,12.855,28.653,28.654,28.653s28.654-12.854,28.654-28.653
	C194.993,330.244,182.138,317.391,166.339,317.391z M166.339,359.492c-7.415,0-13.449-6.033-13.449-13.448
	c0-7.415,6.033-13.448,13.449-13.448s13.449,6.033,13.449,13.448C179.787,353.459,173.754,359.492,166.339,359.492z"/>
<path d="M345.655,317.391c-15.8,0-28.654,12.854-28.654,28.653c0,15.8,12.855,28.653,28.654,28.653s28.654-12.854,28.654-28.653
	C374.31,330.244,361.455,317.391,345.655,317.391z M345.655,359.492c-7.415,0-13.449-6.033-13.449-13.448
	c0-7.415,6.033-13.448,13.449-13.448c7.416,0,13.449,6.033,13.449,13.448C359.104,353.459,353.072,359.492,345.655,359.492z"/>
<path d="M248.978,105.799c1.242,2.934,4.194,4.838,7.389,4.684c3.308-0.16,6.195-2.53,7.003-5.741
	c1.685-6.692-6.075-11.987-11.716-8.083C248.766,98.656,247.613,102.555,248.978,105.799z"/>
</svg>
